ISO-10303-21;
HEADER;
FILE_DESCRIPTION (( 'STEP AP214' ),
    '1' );
FILE_NAME ('°¡.STEP',
    '2025-12-27T12:55:26',
    ( '' ),
    ( '' ),
    'SwSTEP 2.0',
    'SolidWorks 2024',
    '' );
FILE_SCHEMA (( 'AUTOMOTIVE_DESIGN' ));
ENDSEC;

DATA;
#1 = VERTEX_POINT ( 'NONE', #180 ) ;
#2 =( NAMED_UNIT ( * ) PLANE_ANGLE_UNIT ( ) SI_UNIT ( $, .RADIAN. ) );
#3 = COLOUR_RGB ( '',0.7921568627450980005, 0.8196078431372548767, 0.9333333333333333481 ) ;
#4 = ORIENTED_EDGE ( 'NONE', *, *, #124, .F. ) ;
#5 = AXIS2_PLACEMENT_3D ( 'NONE', #87, #100, #48 ) ;
#6 = FACE_OUTER_BOUND ( 'NONE', #110, .T. ) ;
#7 = ADVANCED_FACE ( 'NONE', ( #168 ), #99, .F. ) ;
#8 = VERTEX_POINT ( 'NONE', #68 ) ;
#9 = CARTESIAN_POINT ( 'NONE',  ( 0.000000000000000000, 0.000000000000000000, 0.000000000000000000 ) ) ;
#10 = ORIENTED_EDGE ( 'NONE', *, *, #106, .T. ) ;
#11 = PRODUCT ( '\X2\554a\X0\', '\X2\554a\X0\', '', ( #120 ) ) ;
#12 = CARTESIAN_POINT ( 'NONE',  ( 0.000000000000000000, 0.000000000000000000, 10.00000000000000000 ) ) ;
#13 = VECTOR ( 'NONE', #157, 1000.000000000000000 ) ;
#14 = CARTESIAN_POINT ( 'NONE',  ( 0.000000000000000000, 45.12141171174169330, 10.00000000000000000 ) ) ;
#15 = PRODUCT_DEFINITION ( 'æœ', '', #73, #75 ) ;
#16 = CARTESIAN_POINT ( 'NONE',  ( 0.000000000000000000, 0.000000000000000000, 0.000000000000000000 ) ) ;
#17 = CARTESIAN_POINT ( 'NONE',  ( 0.000000000000000000, 0.000000000000000000, 10.00000000000000000 ) ) ;
#18 = LINE ( 'NONE', #28, #19 ) ;
#19 = VECTOR ( 'NONE', #113, 1000.000000000000000 ) ;
#20 = EDGE_CURVE ( 'NONE', #178, #162, #122, .T. ) ;
#21 = VECTOR ( 'NONE', #128, 1000.000000000000000 ) ;
#22 = EDGE_CURVE ( 'NONE', #136, #98, #58, .T. ) ;
#23 = ORIENTED_EDGE ( 'NONE', *, *, #20, .T. ) ;
#24 = ADVANCED_FACE ( 'NONE', ( #6 ), #50, .F. ) ;
#25 = CARTESIAN_POINT ( 'NONE',  ( 0.000000000000000000, 0.000000000000000000, 0.000000000000000000 ) ) ;
#26 = PLANE ( 'NONE',  #5 ) ;
#27 = EDGE_CURVE ( 'NONE', #136, #1, #101, .T. ) ;
#28 = CARTESIAN_POINT ( 'NONE',  ( 0.000000000000000000, 45.12141171174169330, 0.000000000000000000 ) ) ;
#29 = CARTESIAN_POINT ( 'NONE',  ( 0.000000000000000000, 0.000000000000000000, 0.000000000000000000 ) ) ;
#30 = LINE ( 'NONE', #12, #39 ) ;
#31 = APPLICATION_CONTEXT ( 'automotive_design' ) ;
#32 =( LENGTH_UNIT ( ) NAMED_UNIT ( * ) SI_UNIT ( .MILLI., .METRE. ) );
#33 = EDGE_CURVE ( 'NONE', #123, #98, #139, .T. ) ;
#34 = DIRECTION ( 'NONE',  ( 1.000000000000000000, 0.000000000000000000, 0.000000000000000000 ) ) ;
#35 = PRESENTATION_STYLE_ASSIGNMENT (( #118 ) ) ;
#36 = EDGE_CURVE ( 'NONE', #162, #123, #104, .T. ) ;
#37 = CARTESIAN_POINT ( 'NONE',  ( 0.000000000000000000, 0.000000000000000000, 0.000000000000000000 ) ) ;
#38 = ORIENTED_EDGE ( 'NONE', *, *, #124, .T. ) ;
#39 = VECTOR ( 'NONE', #64, 1000.000000000000000 ) ;
#40 = ORIENTED_EDGE ( 'NONE', *, *, #33, .F. ) ;
#41 = ORIENTED_EDGE ( 'NONE', *, *, #44, .T. ) ;
#42 = VECTOR ( 'NONE', #127, 1000.000000000000000 ) ;
#43 = DIRECTION ( 'NONE',  ( -0.000000000000000000, -0.000000000000000000, -1.000000000000000000 ) ) ;
#44 = EDGE_CURVE ( 'NONE', #8, #123, #84, .T. ) ;
#45 = CARTESIAN_POINT ( 'NONE',  ( 44.85856853672187583, 0.000000000000000000, 10.00000000000000000 ) ) ;
#46 = FACE_OUTER_BOUND ( 'NONE', #137, .T. ) ;
#47 = CARTESIAN_POINT ( 'NONE',  ( 0.000000000000000000, 0.000000000000000000, 10.00000000000000000 ) ) ;
#48 = DIRECTION ( 'NONE',  ( 0.000000000000000000, -0.000000000000000000, -1.000000000000000000 ) ) ;
#49 = PLANE ( 'NONE',  #109 ) ;
#50 = PLANE ( 'NONE',  #60 ) ;
#51 = VECTOR ( 'NONE', #115, 1000.000000000000000 ) ;
#52 =( NAMED_UNIT ( * ) PLANE_ANGLE_UNIT ( ) SI_UNIT ( $, .RADIAN. ) );
#53 = VECTOR ( 'NONE', #130, 1000.000000000000000 ) ;
#54 =( NAMED_UNIT ( * ) SI_UNIT ( $, .STERADIAN. ) SOLID_ANGLE_UNIT ( ) );
#55 = UNCERTAINTY_MEASURE_WITH_UNIT (LENGTH_MEASURE( 1.000000000000000082E-05 ), #92, 'distance_accuracy_value', 'NONE');
#56 = ORIENTED_EDGE ( 'NONE', *, *, #44, .F. ) ;
#57 =( GEOMETRIC_REPRESENTATION_CONTEXT ( 3 ) GLOBAL_UNCERTAINTY_ASSIGNED_CONTEXT ( ( #55 ) ) GLOBAL_UNIT_ASSIGNED_CONTEXT ( ( #92, #52, #160 ) ) REPRESENTATION_CONTEXT ( 'NONE', 'WORKASPACE' ) );
#58 = LINE ( 'NONE', #111, #80 ) ;
#59 = ADVANCED_FACE ( 'NONE', ( #126 ), #102, .F. ) ;
#60 = AXIS2_PLACEMENT_3D ( 'NONE', #183, #74, #117 ) ;
#61 = CARTESIAN_POINT ( 'NONE',  ( 44.85856853672187583, 0.000000000000000000, 0.000000000000000000 ) ) ;
#62 = UNCERTAINTY_MEASURE_WITH_UNIT (LENGTH_MEASURE( 1.000000000000000082E-05 ), #32, 'distance_accuracy_value', 'NONE');
#63 = DIRECTION ( 'NONE',  ( -1.000000000000000000, -0.000000000000000000, -0.000000000000000000 ) ) ;
#64 = DIRECTION ( 'NONE',  ( 1.000000000000000000, 0.000000000000000000, 0.000000000000000000 ) ) ;
#65 = PLANE ( 'NONE',  #82 ) ;
#66 = EDGE_LOOP ( 'NONE', ( #177, #67, #125, #41 ) ) ;
#67 = ORIENTED_EDGE ( 'NONE', *, *, #22, .F. ) ;
#68 = CARTESIAN_POINT ( 'NONE',  ( 44.85856853672187583, 0.000000000000000000, 10.00000000000000000 ) ) ;
#69 = EDGE_CURVE ( 'NONE', #8, #136, #184, .T. ) ;
#70 = VECTOR ( 'NONE', #179, 1000.000000000000000 ) ;
#71 = ORIENTED_EDGE ( 'NONE', *, *, #27, .T. ) ;
#72 = CARTESIAN_POINT ( 'NONE',  ( 0.000000000000000000, 0.000000000000000000, 10.00000000000000000 ) ) ;
#73 = PRODUCT_DEFINITION_FORMATION_WITH_SPECIFIED_SOURCE ( 'ä»', '', #11, .NOT_KNOWN. ) ;
#74 = DIRECTION ( 'NONE',  ( 0.000000000000000000, 1.000000000000000000, 0.000000000000000000 ) ) ;
#75 = PRODUCT_DEFINITION_CONTEXT ( 'detailed design', #31, 'design' ) ;
#76 = CARTESIAN_POINT ( 'NONE',  ( 44.85856853672187583, 0.000000000000000000, 10.00000000000000000 ) ) ;
#77 = DIRECTION ( 'NONE',  ( -0.000000000000000000, -0.000000000000000000, -1.000000000000000000 ) ) ;
#78 = EDGE_CURVE ( 'NONE', #166, #8, #30, .T. ) ;
#79 = CARTESIAN_POINT ( 'NONE',  ( 0.000000000000000000, 0.000000000000000000, 10.00000000000000000 ) ) ;
#80 = VECTOR ( 'NONE', #43, 1000.000000000000000 ) ;
#81 = ORIENTED_EDGE ( 'NONE', *, *, #172, .F. ) ;
#82 = AXIS2_PLACEMENT_3D ( 'NONE', #16, #140, #187 ) ;
#83 = ORIENTED_EDGE ( 'NONE', *, *, #36, .F. ) ;
#84 = LINE ( 'NONE', #76, #51 ) ;
#85 = LINE ( 'NONE', #14, #86 ) ;
#86 = VECTOR ( 'NONE', #77, 1000.000000000000000 ) ;
#87 = CARTESIAN_POINT ( 'NONE',  ( 0.000000000000000000, 45.12141171174169330, 10.00000000000000000 ) ) ;
#88 = ADVANCED_FACE ( 'NONE', ( #114 ), #49, .F. ) ;
#89 = CARTESIAN_POINT ( 'NONE',  ( 0.000000000000000000, 45.12141171174169330, 10.00000000000000000 ) ) ;
#90 = DIRECTION ( 'NONE',  ( 1.000000000000000000, 0.000000000000000000, 0.000000000000000000 ) ) ;
#91 = VECTOR ( 'NONE', #63, 1000.000000000000000 ) ;
#92 =( LENGTH_UNIT ( ) NAMED_UNIT ( * ) SI_UNIT ( .MILLI., .METRE. ) );
#93 = PRESENTATION_LAYER_ASSIGNMENT (  '', '', ( #146 ) ) ;
#94 = APPLICATION_PROTOCOL_DEFINITION ( 'draft international standard', 'automotive_design', 1998, #153 ) ;
#95 = AXIS2_PLACEMENT_3D ( 'NONE', #45, #112, #154 ) ;
#96 = ORIENTED_EDGE ( 'NONE', *, *, #78, .T. ) ;
#97 = ORIENTED_EDGE ( 'NONE', *, *, #20, .F. ) ;
#98 = VERTEX_POINT ( 'NONE', #142 ) ;
#99 = PLANE ( 'NONE',  #95 ) ;
#100 = DIRECTION ( 'NONE',  ( 0.000000000000000000, -1.000000000000000000, 0.000000000000000000 ) ) ;
#101 = LINE ( 'NONE', #89, #91 ) ;
#102 = PLANE ( 'NONE',  #167 ) ;
#103 = SURFACE_STYLE_FILL_AREA ( #116 ) ;
#104 = LINE ( 'NONE', #25, #42 ) ;
#105 = CARTESIAN_POINT ( 'NONE',  ( 0.000000000000000000, 45.12141171174169330, 0.000000000000000000 ) ) ;
#106 = EDGE_CURVE ( 'NONE', #1, #166, #171, .T. ) ;
#107 = ORIENTED_EDGE ( 'NONE', *, *, #106, .F. ) ;
#108 = ORIENTED_EDGE ( 'NONE', *, *, #149, .F. ) ;
#109 = AXIS2_PLACEMENT_3D ( 'NONE', #72, #173, #182 ) ;
#110 = EDGE_LOOP ( 'NONE', ( #175, #56, #134, #151 ) ) ;
#111 = CARTESIAN_POINT ( 'NONE',  ( 44.85856853672187583, 45.12141171174169330, 10.00000000000000000 ) ) ;
#112 = DIRECTION ( 'NONE',  ( -1.000000000000000000, 0.000000000000000000, 0.000000000000000000 ) ) ;
#113 = DIRECTION ( 'NONE',  ( -1.000000000000000000, -0.000000000000000000, -0.000000000000000000 ) ) ;
#114 = FACE_OUTER_BOUND ( 'NONE', #165, .T. ) ;
#115 = DIRECTION ( 'NONE',  ( -0.000000000000000000, -0.000000000000000000, -1.000000000000000000 ) ) ;
#116 = FILL_AREA_STYLE ('',( #129 ) ) ;
#117 = DIRECTION ( 'NONE',  ( 0.000000000000000000, -0.000000000000000000, 1.000000000000000000 ) ) ;
#118 = SURFACE_STYLE_USAGE ( .BOTH. , #174 ) ;
#119 =( GEOMETRIC_REPRESENTATION_CONTEXT ( 3 ) GLOBAL_UNCERTAINTY_ASSIGNED_CONTEXT ( ( #62 ) ) GLOBAL_UNIT_ASSIGNED_CONTEXT ( ( #32, #2, #54 ) ) REPRESENTATION_CONTEXT ( 'NONE', 'WORKASPACE' ) );
#120 = PRODUCT_CONTEXT ( 'NONE', #153, 'mechanical' ) ;
#121 = ADVANCED_BREP_SHAPE_REPRESENTATION ( '\X2\554a\X0\', ( #176, #132 ), #57 ) ;
#122 = LINE ( 'NONE', #9, #70 ) ;
#123 = VERTEX_POINT ( 'NONE', #61 ) ;
#124 = EDGE_CURVE ( 'NONE', #98, #178, #18, .T. ) ;
#125 = ORIENTED_EDGE ( 'NONE', *, *, #69, .F. ) ;
#126 = FACE_OUTER_BOUND ( 'NONE', #152, .T. ) ;
#127 = DIRECTION ( 'NONE',  ( 1.000000000000000000, 0.000000000000000000, 0.000000000000000000 ) ) ;
#128 = DIRECTION ( 'NONE',  ( 0.000000000000000000, 1.000000000000000000, 0.000000000000000000 ) ) ;
#129 = FILL_AREA_STYLE_COLOUR ( '', #3 ) ;
#130 = DIRECTION ( 'NONE',  ( -0.000000000000000000, -0.000000000000000000, -1.000000000000000000 ) ) ;
#131 = APPLICATION_PROTOCOL_DEFINITION ( 'draft international standard', 'automotive_design', 1998, #31 ) ;
#132 = AXIS2_PLACEMENT_3D ( 'NONE', #37, #147, #34 ) ;
#133 = SHAPE_DEFINITION_REPRESENTATION ( #156, #121 ) ;
#134 = ORIENTED_EDGE ( 'NONE', *, *, #78, .F. ) ;
#135 = CLOSED_SHELL ( 'NONE', ( #59, #24, #7, #145, #88, #164 ) ) ;
#136 = VERTEX_POINT ( 'NONE', #169 ) ;
#137 = EDGE_LOOP ( 'NONE', ( #38, #81, #148, #138 ) ) ;
#138 = ORIENTED_EDGE ( 'NONE', *, *, #22, .T. ) ;
#139 = LINE ( 'NONE', #186, #13 ) ;
#140 = DIRECTION ( 'NONE',  ( 0.000000000000000000, 0.000000000000000000, -1.000000000000000000 ) ) ;
#141 = VECTOR ( 'NONE', #144, 1000.000000000000000 ) ;
#142 = CARTESIAN_POINT ( 'NONE',  ( 44.85856853672187583, 45.12141171174169330, 0.000000000000000000 ) ) ;
#143 = FACE_OUTER_BOUND ( 'NONE', #163, .T. ) ;
#144 = DIRECTION ( 'NONE',  ( -0.000000000000000000, -1.000000000000000000, -0.000000000000000000 ) ) ;
#145 = ADVANCED_FACE ( 'NONE', ( #46 ), #26, .F. ) ;
#146 = STYLED_ITEM ( 'NONE', ( #35 ), #176 ) ;
#147 = DIRECTION ( 'NONE',  ( 0.000000000000000000, 0.000000000000000000, 1.000000000000000000 ) ) ;
#148 = ORIENTED_EDGE ( 'NONE', *, *, #27, .F. ) ;
#149 = EDGE_CURVE ( 'NONE', #166, #162, #158, .T. ) ;
#150 = ORIENTED_EDGE ( 'NONE', *, *, #172, .T. ) ;
#151 = ORIENTED_EDGE ( 'NONE', *, *, #149, .T. ) ;
#152 = EDGE_LOOP ( 'NONE', ( #23, #108, #107, #150 ) ) ;
#153 = APPLICATION_CONTEXT ( 'automotive_design' ) ;
#154 = DIRECTION ( 'NONE',  ( 0.000000000000000000, 0.000000000000000000, 1.000000000000000000 ) ) ;
#155 = DIRECTION ( 'NONE',  ( 0.000000000000000000, 0.000000000000000000, -1.000000000000000000 ) ) ;
#156 = PRODUCT_DEFINITION_SHAPE ( 'NONE', 'NONE',  #15 ) ;
#157 = DIRECTION ( 'NONE',  ( 0.000000000000000000, 1.000000000000000000, 0.000000000000000000 ) ) ;
#158 = LINE ( 'NONE', #79, #53 ) ;
#159 = CARTESIAN_POINT ( 'NONE',  ( 44.85856853672187583, 0.000000000000000000, 10.00000000000000000 ) ) ;
#160 =( NAMED_UNIT ( * ) SI_UNIT ( $, .STERADIAN. ) SOLID_ANGLE_UNIT ( ) );
#161 = ORIENTED_EDGE ( 'NONE', *, *, #69, .T. ) ;
#162 = VERTEX_POINT ( 'NONE', #29 ) ;
#163 = EDGE_LOOP ( 'NONE', ( #97, #4, #40, #83 ) ) ;
#164 = ADVANCED_FACE ( 'NONE', ( #143 ), #65, .T. ) ;
#165 = EDGE_LOOP ( 'NONE', ( #10, #96, #161, #71 ) ) ;
#166 = VERTEX_POINT ( 'NONE', #17 ) ;
#167 = AXIS2_PLACEMENT_3D ( 'NONE', #170, #90, #155 ) ;
#168 = FACE_OUTER_BOUND ( 'NONE', #66, .T. ) ;
#169 = CARTESIAN_POINT ( 'NONE',  ( 44.85856853672187583, 45.12141171174169330, 10.00000000000000000 ) ) ;
#170 = CARTESIAN_POINT ( 'NONE',  ( 0.000000000000000000, 0.000000000000000000, 10.00000000000000000 ) ) ;
#171 = LINE ( 'NONE', #47, #141 ) ;
#172 = EDGE_CURVE ( 'NONE', #1, #178, #85, .T. ) ;
#173 = DIRECTION ( 'NONE',  ( 0.000000000000000000, 0.000000000000000000, -1.000000000000000000 ) ) ;
#174 = SURFACE_SIDE_STYLE ('',( #103 ) ) ;
#175 = ORIENTED_EDGE ( 'NONE', *, *, #36, .T. ) ;
#176 = MANIFOLD_SOLID_BREP ( 'Í¹Ì¨-À­Éì1', #135 ) ;
#177 = ORIENTED_EDGE ( 'NONE', *, *, #33, .T. ) ;
#178 = VERTEX_POINT ( 'NONE', #105 ) ;
#179 = DIRECTION ( 'NONE',  ( -0.000000000000000000, -1.000000000000000000, -0.000000000000000000 ) ) ;
#180 = CARTESIAN_POINT ( 'NONE',  ( 0.000000000000000000, 45.12141171174169330, 10.00000000000000000 ) ) ;
#181 = MECHANICAL_DESIGN_GEOMETRIC_PRESENTATION_REPRESENTATION (  '', ( #146 ), #119 ) ;
#182 = DIRECTION ( 'NONE',  ( -1.000000000000000000, 0.000000000000000000, -0.000000000000000000 ) ) ;
#183 = CARTESIAN_POINT ( 'NONE',  ( 0.000000000000000000, 0.000000000000000000, 10.00000000000000000 ) ) ;
#184 = LINE ( 'NONE', #159, #21 ) ;
#185 = PRODUCT_RELATED_PRODUCT_CATEGORY ( 'part', '', ( #11 ) ) ;
#186 = CARTESIAN_POINT ( 'NONE',  ( 44.85856853672187583, 0.000000000000000000, 0.000000000000000000 ) ) ;
#187 = DIRECTION ( 'NONE',  ( -1.000000000000000000, 0.000000000000000000, -0.000000000000000000 ) ) ;
ENDSEC;
END-ISO-10303-21;
